<svg width="289" height="49" viewBox="0 0 289 49" fill="none" xmlns="http://www.w3.org/2000/svg">
<path d="M11.9733 17.8656C11.9733 26.3057 13.6055 36.0063 11.8838 44.2605C11.0388 48.3116 8.4202 47.8815 5.75481 45.692C3.03617 43.4589 3.57979 42.1473 2.31006 39.6078" stroke="black" stroke-width="3" stroke-linecap="round"/>
<path d="M15.1943 36.3868C17.6909 35.6186 19.9874 33.2715 21.9049 31.5999C23.9675 29.8017 26.0041 25.215 21.5917 28.1999C15.3639 32.4129 15.4922 41.3198 24.0523 39.6078" stroke="black" stroke-width="3" stroke-linecap="round"/>
<path d="M52.2368 24.3077C50.5393 25.0622 50.8101 28.0549 50.4473 29.5867C49.6242 33.0621 52.8096 32.2644 55.6815 32.8078C60.6286 33.7437 57.3774 37.3367 54.7868 39.5183C50.9663 42.7356 46.4007 44.7799 44.1841 39.6078" stroke="black" stroke-width="3" stroke-linecap="round"/>
<path d="M53.042 42.0236C61.0133 43.3119 65.2888 44.5143 68.8789 36.2078C70.836 31.6796 68.9012 25.3056 70.8921 34.0157C72.4869 40.993 75.5058 41.708 78.2737 35.0447C79.5933 31.8679 81.4597 40.0492 83.1948 42.0236C86.7662 46.0877 87.5143 39.4116 87.6237 37.0578C87.8444 32.314 89.7945 39.2843 91.8738 40.8605C97.9027 45.4308 97.1959 30.2353 101.134 28.6473C104.238 27.3957 108.822 28.7348 111.648 30.1236C115.038 31.7901 113.97 32.9154 113.437 35.5815" stroke="black" stroke-width="3" stroke-linecap="round"/>
<path d="M84.4473 19.4762C86.1848 19.7078 90.6738 21.8879 92.142 20.7288C93.5846 19.5899 88.0303 18.7161 87.6683 18.6709" stroke="black" stroke-width="3" stroke-linecap="round"/>
<path d="M139.205 34.7762C140.61 26.2128 145.115 12.3724 139.384 4.26556C134.257 -2.98716 135.952 9.18808 136.253 10.9761C138.11 22.0364 141.544 32.6841 144.574 43.4552C145.229 45.7841 144.846 44.5956 144.663 43.4552C144.244 40.8342 143.167 36.6769 144.976 34.2841C148.875 29.1277 157.142 40.3424 159.069 42.6499C163.054 47.4232 161.957 40.2787 161.261 37.8183C161.057 37.0972 158.251 31.8198 160.053 35.0446C161.37 37.4011 166.533 45.2913 169.358 40.1447C170.877 37.3788 167.783 29.196 171.953 32.5394C173.274 33.5984 181.933 43.0864 181.303 37.4157C181.174 36.2564 178.851 31.5482 180.811 33.8815C182.943 36.4203 185.078 39.0868 187.79 41.0394C192.089 44.1349 190.914 38.1023 192.129 35.671C196.4 27.1301 205.64 40.8807 210.427 40.0105C212.95 39.5517 214.543 35.9231 214.543 33.6578C214.543 32.3758 211.178 27.7747 211.053 29.0499C210.653 33.1517 216.06 40.6926 219.866 41.7999C224.525 43.1552 223.878 35.1207 224.564 32.8078C224.72 32.2805 225.315 33.6146 225.637 34.0604C227.207 36.2335 228.83 38.6471 230.916 40.3684C235.092 43.8133 235.727 36.9243 235.837 34.2394C236.006 30.1504 235.536 32.5222 237.582 34.4631C240.574 37.3016 248.397 40.9501 252.301 37.9078C253.999 36.5842 254.105 33.5911 252.122 32.7183C251.331 32.3705 245.39 30.7164 248.811 30.7499C255.362 30.8141 262.526 31.6212 268.361 34.821C270.224 35.8423 273.706 40.1087 269.032 39.4289C261.104 38.2756 286.39 26.0106 276.996 25.2025C270.341 24.6301 271.609 29.3497 275.653 32.271C279.31 34.9115 283.033 36.4026 287.375 37.192" stroke="black" stroke-width="3" stroke-linecap="round"/>
<path d="M259.996 28.3341C217.182 31.3762 174.373 34.4757 131.555 37.4605C103.778 39.3968 76.0203 41.6977 48.2104 43.0973C44.2832 43.295 32.6402 43.2418 36.4445 42.2473C49.9144 38.7263 63.9114 37.6741 77.6473 35.4026C112.306 29.6709 150.464 24.0718 185.106 16.2551C188.208 15.5551 197.212 13.308 194.053 12.9446C187.392 12.1783 147.242 20.113 146.006 20.3709C139.746 21.677 133.537 23.2452 127.395 25.0236C123.432 26.1708 122.139 28.8489 128.916 25.0236C138.863 19.409 120.402 23.5781 123.637 26.8131C126.112 29.2877 130.17 29.6666 133.658 29.9446C140.589 30.4971 147.588 29.9743 154.506 29.2736C159.112 28.807 165.338 30.1664 168.106 26.4552C170.424 23.3467 160.317 26.1201 156.474 26.6341C142.077 28.5596 111.179 33.9283 97.1974 40.5026C95.5961 41.2556 94.3163 45.5364 96.079 45.6921C117.258 47.5625 177.158 36.4017 190.743 35.5815" stroke="black" stroke-width="3" stroke-linecap="round"/>
</svg>
